#!OML:ASF H:\BabyWalks\Project 1\Capture day 1\Session 1\baby.ASF
:FULLY-SPECIFIED
:DEGREES
1078
root -0.670405 17.6115 0.12043 -482.584 85.226 -487.202
lowerback 19.9814 -0.139708 5.21623
upperback 2.14272 1.4054 2.56288
thorax -8.81708 0.616416 -0.57197
lowerneck 3.59269 -0.428349 7.99925
upperneck -23.6119 -0.771422 -8.48324
head -7.88127 0.00980361 -4.19153
rclavicle 1.41137e-014 3.81667e-014
rhumerus -46.8952 4.84695 -78.8467
rradius 44.6752
rwrist 4.54366
rhand -20.6987 -21.5611
rfingers 7.12502
rthumb 5.66523 -51.4654
lclavicle 1.41137e-014 3.81667e-014
lhumerus -61.3069 -17.3932 91.6568
lradius 50.1443
lwrist -3.44053
lhand 13.1941 14.1127
lfingers 7.12502
lthumb 38.1492 39.8711
rfemur -10.6846 9.39505 23.6338
rtibia 30.9588
rfoot -20.6433 -4.69521
rtoes -14.7343
lfemur -29.6641 0.499956 -8.6436
ltibia 46.2794
lfoot -21.7762 -10.6927
ltoes -16.8187
1079
root -0.526427 17.6464 0.101883 -481.868 85.2274 -486.573
lowerback 19.8045 -0.0145608 5.26867
upperback 2.09498 1.56006 2.51199
thorax -8.76284 0.685777 -0.696457
lowerneck 3.42163 -0.414695 8.0962
upperneck -23.4121 -0.779185 -8.63796
head -7.78321 0.00788199 -4.25268
rclavicle -1.47101e-014 -1.59028e-015
rhumerus -46.9666 5.27156 -79.2987
rradius 45.7673
rwrist 3.55277
rhand -19.9521 -21.0847
rfingers 7.12502
rthumb 6.38603 -50.9685
lclavicle -1.47101e-014 -1.59028e-015
lhumerus -62.1778 -17.2486 91.9126
lradius 49.838
lwrist -3.22244
lhand 14.856 14.9035
lfingers 7.12502
lthumb 39.7161 40.2146
rfemur -9.74103 9.55168 23.6821
rtibia 29.8981
rfoot -20.3318 -4.69148
rtoes -15.0337
lfemur -29.7906 0.186282 -8.85041
ltibia 43.9395
lfoot -21.6766 -10.0541
ltoes -16.8213
1080
root -0.381594 17.6812 0.0819786 -480.658 85.2363 -485.464
lowerback 19.5998 0.121149 5.31926
upperback 2.04359 1.72503 2.45468
thorax -8.69593 0.760136 -0.828315
lowerneck 3.25413 -0.389846 8.19212
upperneck -23.1865 -0.76937 -8.78219
head -7.67592 0.0126776 -4.31032
rclavicle 1.09332e-014 3.02153e-014
rhumerus -47.0557 5.75838 -79.7679
rradius 46.8907
rwrist 2.5735
rhand -19.0258 -20.4764
rfingers 7.12502
rthumb 7.28027 -50.3312
lclavicle 1.09332e-014 3.02153e-014
lhumerus -63.0685 -17.1379 92.1524
lradius 49.6498
lwrist -2.91482
lhand 16.4066 15.7
lfingers 7.12502
lthumb 41.174 40.5608
rfemur -8.80965 9.69123 23.7407
rtibia 28.8064
rfoot -19.9656 -4.64932
rtoes -15.298
lfemur -29.8878 -0.144927 -9.01064
ltibia 41.5839
lfoot -21.5358 -9.39909
ltoes -16.9229
1081
root -0.236168 17.7155 0.0605263 -478.977 85.2518 -483.891
lowerback 19.378 0.265018 5.3702
upperback 1.98877 1.89845 2.38955
thorax -8.62175 0.838468 -0.969691
lowerneck 3.09306 -0.353965 8.29349
upperneck -22.9339 -0.74233 -8.91996
head -7.5596 0.0238354 -4.36685
rclavicle 4.17448e-015 -1.82882e-014
rhumerus -47.1598 6.29964 -80.2521
rradius 48.0361
rwrist 1.60935
rhand -17.9789 -19.7768
rfingers 7.12502
rthumb 8.29069 -49.5941
lclavicle 4.17448e-015 -1.82882e-014
lhumerus -63.978 -17.0597 92.3772
lradius 49.5692
lwrist -2.52261
lhand 17.8407 16.473
lfingers 7.12502
lthumb 42.5185 40.887
rfemur -7.8882 9.80333 23.8062
rtibia 27.6937
rfoot -19.551 -4.56356
rtoes -15.5186
lfemur -29.9538 -0.5152 -9.11791
ltibia 39.2464
lfoot -21.3795 -8.70793
ltoes -17.1038
1082
root -0.0903568 17.7489 0.0372992 -476.795 85.2664 -481.815
lowerback 19.146 0.41579 5.42447
upperback 1.93421 2.08043 2.32097
thorax -8.53989 0.921063 -1.11742
lowerneck 2.9444 -0.304708 8.39542
upperneck -22.6591 -0.694282 -9.04739
head -7.43656 0.0434568 -4.4205
rclavicle 1.86858e-014 3.26007e-014
rhumerus -47.2707 6.88564 -80.7423
rradius 49.1985
rwrist 0.669996
rhand -16.8495 -19.0289
rfingers 7.12502
rthumb 9.38058 -48.8002
lclavicle 1.86858e-014 3.26007e-014
lhumerus -64.8987 -17.01 92.5941
lradius 49.5857
lwrist -2.04569
lhand 19.1622 17.2199
lfingers 7.12502
lthumb 43.7538 41.194
rfemur -6.97007 9.88176 23.8825
rtibia 26.5705
rfoot -19.0969 -4.42918
rtoes -15.7003
lfemur -29.988 -0.945067 -9.15742
ltibia 36.9652
lfoot -21.225 -7.96007
ltoes -17.3639
1083
root 0.0556849 17.7808 0.0123014 -474.15 85.2731 -479.266
lowerback 18.9163 0.56894 5.48278
upperback 1.8791 2.26643 2.24997
thorax -8.45836 1.00559 -1.26973
lowerneck 2.81655 -0.240082 8.49711
upperneck -22.3699 -0.621811 -9.16245
head -7.31059 0.0733727 -4.47095
rclavicle -8.94531e-015 -8.34896e-015
rhumerus -47.3868 7.5101 -81.2379
rradius 50.368
rwrist -0.234986
rhand -15.7005 -18.2532
rfingers 7.12502
rthumb 10.489 -47.9715
lclavicle -8.94531e-015 -8.34896e-015
lhumerus -65.8302 -16.9841 92.8074
lradius 49.6832
lwrist -1.49322
lhand 20.3557 17.9139
lfingers 7.12502
lthumb 44.8663 41.4659
rfemur -6.04959 9.92695 23.9704
rtibia 25.4508
rfoot -18.6191 -4.24233
rtoes -15.8099
lfemur -29.992 -1.45123 -9.12138
ltibia 34.7828
lfoot -21.0904 -7.13199
ltoes -17.6645
1084
root 0.201828 17.8105 -0.0142835 -471.092 85.2629 -476.278
lowerback 18.7025 0.721364 5.54371
upperback 1.82658 2.45353 2.1799
thorax -8.38141 1.09083 -1.42178
lowerneck 2.70985 -0.159861 8.59774
upperneck -22.0679 -0.525074 -9.26673
head -7.18224 0.113856 -4.51857
rclavicle 3.95581e-014 2.14687e-014
rhumerus -47.5011 8.16335 -81.732
rradius 51.5465
rwrist -1.1168
rhand -14.5434 -17.4947
rfingers 7.12502
rthumb 11.6051 -47.1534
lclavicle 3.95581e-014 2.14687e-014
lhumerus -66.7681 -16.973 93.0183
lradius 49.8541
lwrist -0.879391
lhand 21.4214 18.5672
lfingers 7.12502
lthumb 45.8569 41.7211
rfemur -5.11681 9.94258 24.0741
rtibia 24.3468
rfoot -18.1249 -4.00755
rtoes -15.8654
lfemur -29.9643 -2.04621 -9.00373
ltibia 32.7458
lfoot -20.9883 -6.20024
ltoes -17.9349
1085
root 0.347863 17.8376 -0.0422023 -467.723 85.2296 -472.951
lowerback 18.5051 0.870875 5.59987
upperback 1.78133 2.63782 2.11516
thorax -8.30517 1.17552 -1.56379
lowerneck 2.6151 -0.0646803 8.69348
upperneck -21.7539 -0.405415 -9.35841
head -7.05023 0.164477 -4.5619
rclavicle 2.56432e-014 -1.66979e-014
rhumerus -47.6027 8.84127 -82.2186
rradius 52.7282
rwrist -1.96804
rhand -13.4154 -16.7834
rfingers 7.12502
rthumb 12.6927 -46.3777
lclavicle 2.56432e-014 -1.66979e-014
lhumerus -67.697 -16.9734 93.2325
lradius 50.0793
lwrist -0.224246
lhand 22.3694 19.1563
lfingers 7.12502
lthumb 46.7356 41.9381
rfemur -4.18047 9.93028 24.1926
rtibia 23.2746
rfoot -17.6184 -3.73372
rtoes -15.9157
lfemur -29.9136 -2.71947 -8.81303
ltibia 30.8983
lfoot -20.9176 -5.1465
ltoes -18.1481
1086
root 0.493816 17.8609 -0.0712699 -464.145 85.1682 -469.38
lowerback 18.3325 1.01409 5.64935
upperback 1.74578 2.81521 2.05698
thorax -8.23205 1.2578 -1.69273
lowerneck 2.53037 0.045526 8.78123
upperneck -21.4344 -0.263468 -9.43931
head -6.91639 0.225567 -4.60111
rclavicle 8.94531e-015 -3.18055e-015
rhumerus -47.6873 9.53756 -82.6947
rradius 53.9007
rwrist -2.75405
rhand -12.3462 -16.1214
rfingers 7.12502
rthumb 13.7233 -45.6488
lclavicle 8.94531e-015 -3.18055e-015
lhumerus -68.611 -16.979 93.4509
lradius 50.3514
lwrist 0.455034
lhand 23.21 19.6894
lfingers 7.12502
lthumb 47.5129 42.1263
rfemur -3.23058 9.89036 24.3243
rtibia 22.2544
rfoot -17.1226 -3.41691
rtoes -15.9771
lfemur -29.84 -3.44973 -8.56555
ltibia 29.2734
lfoot -20.8729 -3.96581
ltoes -18.2496
1087
root 0.639581 17.8796 -0.101105 -460.476 85.0787 -465.68
lowerback 18.1843 1.15171 5.68651
upperback 1.71911 2.98525 2.00346
thorax -8.16324 1.33749 -1.80765
lowerneck 2.45518 0.165533 8.86645
upperneck -21.1096 -0.106384 -9.5109
head -6.78139 0.293406 -4.63719
rclavicle -6.4605e-015 1.55052e-014
rhumerus -47.7534 10.2333 -83.1562
rradius 55.0624
rwrist -3.48179
rhand -11.342 -15.5241
rfingers 7.12502
rthumb 14.691 -44.9836
lclavicle -6.4605e-015 1.55052e-014
lhumerus -69.5033 -16.9941 93.6738
lradius 50.6591
lwrist 1.12658
lhand 23.9501 20.1716
lfingers 7.12502
lthumb 48.1955 42.2927
rfemur -2.27897 9.83097 24.4641
rtibia 21.3071
rfoot -16.6456 -3.06408
rtoes -16.0739
lfemur -29.7503 -4.18545 -8.29093
ltibia 27.8947
lfoot -20.8417 -2.69236
ltoes -18.2128
1088
root 0.785274 17.894 -0.131346 -456.863 84.9631 -462.002
lowerback 18.0557 1.2818 5.70245
upperback 1.70379 3.14323 1.95527
thorax -8.09443 1.4128 -1.9017
lowerneck 2.39126 0.295805 8.94551
upperneck -20.7938 0.0665949 -9.57174
head -6.65011 0.368945 -4.66954
rclavicle 2.57426e-014 7.95139e-015
rhumerus -47.7959 10.9214 -83.599
rradius 56.2093
rwrist -4.15527
rhand -10.4127 -14.9998
rfingers 7.12502
rthumb 15.5862 -44.3918
lclavicle 2.57426e-014 7.95139e-015
lhumerus -70.3628 -17.0201 93.9046
lradius 50.9906
lwrist 1.77524
lhand 24.6109 20.5985
lfingers 7.12502
lthumb 48.8037 42.4274
rfemur -1.34355 9.75948 24.6048
rtibia 20.452
rfoot -16.1908 -2.67735
rtoes -16.2154
lfemur -29.6428 -4.87254 -8.02632
ltibia 26.7719
lfoot -20.8219 -1.37787
ltoes -18.0182
1089
root 0.930635 17.9026 -0.161662 -453.411 84.8231 -458.451
lowerback 17.9429 1.40357 5.69309
upperback 1.7004 3.28705 1.91273
thorax -8.02361 1.4829 -1.97178
lowerneck 2.33031 0.431154 9.02596
upperneck -20.4835 0.246731 -9.63151
head -6.52065 0.448041 -4.70199
rclavicle -3.08116e-014 -9.14409e-015
rhumerus -47.8136 11.5876 -84.0164
rradius 57.3435
rwrist -4.76599
rhand -9.55596 -14.5577
rfingers 7.12502
rthumb 16.4112 -43.8835
lclavicle -3.08116e-014 -9.14409e-015
lhumerus -71.1791 -17.0576 94.1427
lradius 51.3342
lwrist 2.38177
lhand 25.2012 20.9669
lfingers 7.12502
lthumb 49.3458 42.5264
rfemur -0.427271 9.67662 24.7439
rtibia 19.7123
rfoot -15.7778 -2.26417
rtoes -16.4527
lfemur -29.5173 -5.45663 -7.80391
ltibia 25.898
lfoot -20.8016 -0.0800039
ltoes -17.681
1090
root 1.07587 17.9053 -0.191761 -450.163 84.6539 -455.072
lowerback 17.8445 1.51657 5.66537
upperback 1.70711 3.41739 1.87511
thorax -7.95182 1.54774 -2.02292
lowerneck 2.27703 0.57311 9.09508
upperneck -20.1873 0.438327 -9.67301
head -6.39641 0.532632 -4.72718
rclavicle 1.98785e-016 7.95139e-015
rhumerus -47.8111 12.2184 -84.4085
rradius 58.4626
rwrist -5.31216
rhand -8.78533 -14.1843
rfingers 7.12502
rthumb 17.1531 -43.4472
lclavicle 1.98785e-016 7.95139e-015
lhumerus -71.9508 -17.1147 94.3901
lradius 51.6862
lwrist 2.94396
lhand 25.7295 21.2696
lfingers 7.12502
lthumb 49.8301 42.5811
rfemur 0.459083 9.59568 24.888
rtibia 19.1096
rfoot -15.4185 -1.82758
rtoes -16.7767
lfemur -29.3649 -5.88568 -7.64063
ltibia 25.2546
lfoot -20.7726 1.12628
ltoes -17.2321
1091
root 1.22096 17.9019 -0.221424 -447.192 84.455 -451.942
lowerback 17.7582 1.61804 5.62539
upperback 1.72295 3.53151 1.84062
thorax -7.8788 1.60571 -2.05989
lowerneck 2.2308 0.721713 9.15872
upperneck -19.9084 0.641297 -9.69935
head -6.27822 0.622568 -4.74725
rclavicle 7.07673e-014 3.18055e-015
rhumerus -47.7899 12.8067 -84.7792
rradius 59.5689
rwrist -5.82432
rhand -8.11698 -13.8856
rfingers 7.12502
rthumb 17.7963 -43.0913
lclavicle 7.07673e-014 3.18055e-015
lhumerus -72.6733 -17.1943 94.6441
lradius 52.0399
lwrist 3.45587
lhand 26.2054 21.5069
lfingers 7.12502
lthumb 50.2655 42.5891
rfemur 1.30661 9.52131 25.0389
rtibia 18.6564
rfoot -15.1223 -1.36905
rtoes -17.1677
lfemur -29.1809 -6.14988 -7.54253
ltibia 24.8236
lfoot -20.6966 2.19988
ltoes -16.7738
1092
root 1.36601 17.8923 -0.25065 -444.537 84.2282 -449.101
lowerback 17.6762 1.70931 5.57813
upperback 1.75035 3.6314 1.80844
thorax -7.79719 1.65785 -2.08655
lowerneck 2.18465 0.875374 9.21525
upperneck -19.6435 0.853059 -9.70954
head -6.16409 0.716569 -4.76128
rclavicle -4.13472e-014 -9.54166e-015
rhumerus -47.7497 13.3343 -85.1198
rradius 60.6701
rwrist -6.31546
rhand -7.52591 -13.6665
rfingers 7.12502
rthumb 18.365 -42.8195
lclavicle -4.13472e-014 -9.54166e-015
lhumerus -73.3382 -17.3056 94.9064
lradius 52.3948
lwrist 3.92882
lhand 26.6374 21.7093
lfingers 7.12502
lthumb 50.66 42.5785
rfemur 2.11584 9.44397 25.1973
rtibia 18.3586
rfoot -14.8939 -0.890309
rtoes -17.6681
lfemur -28.9599 -6.26913 -7.50192
ltibia 24.5853
lfoot -20.5226 3.11504
ltoes -16.4306
